<?plantuml 1.2026.2?><svg xmlns="http://www.w3.org/2000/svg" xmlns:xlink="http://www.w3.org/1999/xlink" contentStyleType="text/css" data-diagram-type="CLASS" height="540px" preserveAspectRatio="none" style="width:622px;height:540px;background:#FFFFFF;" version="1.1" viewBox="0 0 622 540" width="622px" zoomAndPan="magnify"><title>Digital Dungeons - Diagram ER</title><defs/><g><g class="title" data-source-line="2"><text fill="#000000" font-family="'Segoe UI'" font-size="14" font-weight="bold" lengthAdjust="spacing" textLength="204.7295" x="201.9521" y="25.1074">Digital Dungeons - Diagram ER</text></g><!--class USERS--><g class="entity" data-qualified-name="USERS" data-source-line="5" id="ent0002"><rect fill="#F8FAFC" height="164.3281" rx="5" ry="5" style="stroke:#334155;stroke-width:0.5;" width="166.3306" x="7" y="258.6211"/><text fill="#111827" font-family="'Segoe UI'" font-size="13" lengthAdjust="spacing" textLength="29.707" x="75.3118" y="277.6494">users</text><line style="stroke:#334155;stroke-width:0.5;" x1="8" x2="172.3306" y1="285.9121" y2="285.9121"/><g data-visibility-modifier="IE_MANDATORY"><ellipse cx="18" cy="300.0576" fill="#000000" rx="3" ry="3" style="stroke:#000000;stroke-width:1;"/></g><text fill="#000000" font-family="'Segoe UI'" font-size="13" lengthAdjust="spacing" textLength="101.8608" x="26" y="303.9404">user_id : INT &#171;PK&#187;</text><line style="stroke:#334155;stroke-width:1;" x1="8" x2="172.3306" y1="311.2031" y2="311.2031"/><text fill="#000000" font-family="'Segoe UI'" font-size="13" lengthAdjust="spacing" textLength="123.7729" x="13" y="329.2314">username : VARCHAR</text><text fill="#000000" font-family="'Segoe UI'" font-size="13" lengthAdjust="spacing" textLength="98.522" x="13" y="346.5225">email : VARCHAR</text><text fill="#000000" font-family="'Segoe UI'" font-size="13" lengthAdjust="spacing" textLength="154.3306" x="13" y="363.8135">password_hash : VARCHAR</text><text fill="#000000" font-family="'Segoe UI'" font-size="13" lengthAdjust="spacing" textLength="56.2148" x="13" y="381.1045">bio : TEXT</text><text fill="#000000" font-family="'Segoe UI'" font-size="13" lengthAdjust="spacing" textLength="121.4878" x="13" y="398.3955">join_date : DATETIME</text><text fill="#000000" font-family="'Segoe UI'" font-size="13" lengthAdjust="spacing" textLength="123.354" x="13" y="415.6865">last_login : DATETIME</text></g><!--class GAMES--><g class="entity" data-qualified-name="GAMES" data-source-line="16" id="ent0003"><rect fill="#F8FAFC" height="181.6191" rx="5" ry="5" style="stroke:#334155;stroke-width:0.5;" width="150.125" x="233" y="177.6211"/><text fill="#111827" font-family="'Segoe UI'" font-size="13" lengthAdjust="spacing" textLength="37.7813" x="289.1719" y="196.6494">games</text><line style="stroke:#334155;stroke-width:0.5;" x1="234" x2="382.125" y1="204.9121" y2="204.9121"/><g data-visibility-modifier="IE_MANDATORY"><ellipse cx="244" cy="219.0576" fill="#000000" rx="3" ry="3" style="stroke:#000000;stroke-width:1;"/></g><text fill="#000000" font-family="'Segoe UI'" font-size="13" lengthAdjust="spacing" textLength="109.9351" x="252" y="222.9404">game_id : INT &#171;PK&#187;</text><line style="stroke:#334155;stroke-width:1;" x1="234" x2="382.125" y1="230.2031" y2="230.2031"/><text fill="#000000" font-family="'Segoe UI'" font-size="13" lengthAdjust="spacing" textLength="114.6069" x="239" y="248.2314">author_id : INT &#171;FK&#187;</text><text fill="#000000" font-family="'Segoe UI'" font-size="13" lengthAdjust="spacing" textLength="89.521" x="239" y="265.5225">title : VARCHAR</text><text fill="#000000" font-family="'Segoe UI'" font-size="13" lengthAdjust="spacing" textLength="101.6196" x="239" y="282.8135">description : TEXT</text><text fill="#000000" font-family="'Segoe UI'" font-size="13" lengthAdjust="spacing" textLength="122.6177" x="239" y="300.1045">game_content : JSON</text><text fill="#000000" font-family="'Segoe UI'" font-size="13" lengthAdjust="spacing" textLength="138.125" x="239" y="317.3955">is_published : BOOLEAN</text><text fill="#000000" font-family="'Segoe UI'" font-size="13" lengthAdjust="spacing" textLength="128.5591" x="239" y="334.6865">created_at : DATETIME</text><text fill="#000000" font-family="'Segoe UI'" font-size="13" lengthAdjust="spacing" textLength="133.8911" x="239" y="351.9775">updated_at : DATETIME</text></g><!--class PLAYTHROUGHS--><g class="entity" data-qualified-name="PLAYTHROUGHS" data-source-line="28" id="ent0004"><rect fill="#F8FAFC" height="164.3281" rx="5" ry="5" style="stroke:#334155;stroke-width:0.5;" width="172.6338" x="443" y="46.6211"/><text fill="#111827" font-family="'Segoe UI'" font-size="13" lengthAdjust="spacing" textLength="75.48" x="491.5769" y="65.6494">playthroughs</text><line style="stroke:#334155;stroke-width:0.5;" x1="444" x2="614.6338" y1="73.9121" y2="73.9121"/><g data-visibility-modifier="IE_MANDATORY"><ellipse cx="454" cy="88.0576" fill="#000000" rx="3" ry="3" style="stroke:#000000;stroke-width:1;"/></g><text fill="#000000" font-family="'Segoe UI'" font-size="13" lengthAdjust="spacing" textLength="147.6338" x="462" y="91.9404">playthrough_id : INT &#171;PK&#187;</text><line style="stroke:#334155;stroke-width:1;" x1="444" x2="614.6338" y1="99.2031" y2="99.2031"/><text fill="#000000" font-family="'Segoe UI'" font-size="13" lengthAdjust="spacing" textLength="109.002" x="449" y="117.2314">game_id : INT &#171;FK&#187;</text><text fill="#000000" font-family="'Segoe UI'" font-size="13" lengthAdjust="spacing" textLength="100.9277" x="449" y="134.5225">user_id : INT &#171;FK&#187;</text><text fill="#000000" font-family="'Segoe UI'" font-size="13" lengthAdjust="spacing" textLength="106.4121" x="449" y="151.8135">game_state : JSON</text><text fill="#000000" font-family="'Segoe UI'" font-size="13" lengthAdjust="spacing" textLength="101.4292" x="449" y="169.1045">status : VARCHAR</text><text fill="#000000" font-family="'Segoe UI'" font-size="13" lengthAdjust="spacing" textLength="125.6772" x="449" y="186.3955">started_at : DATETIME</text><text fill="#000000" font-family="'Segoe UI'" font-size="13" lengthAdjust="spacing" textLength="133.8911" x="449" y="203.6865">updated_at : DATETIME</text></g><!--class LIKES--><g class="entity" data-qualified-name="LIKES" data-source-line="39" id="ent0005"><rect fill="#F8FAFC" height="112.4551" rx="5" ry="5" style="stroke:#334155;stroke-width:0.5;" width="140.5591" x="459" y="249.6211"/><text fill="#111827" font-family="'Segoe UI'" font-size="13" lengthAdjust="spacing" textLength="25.0732" x="516.7429" y="268.6494">likes</text><line style="stroke:#334155;stroke-width:0.5;" x1="460" x2="598.5591" y1="276.9121" y2="276.9121"/><g data-visibility-modifier="IE_MANDATORY"><ellipse cx="470" cy="291.0576" fill="#000000" rx="3" ry="3" style="stroke:#000000;stroke-width:1;"/></g><text fill="#000000" font-family="'Segoe UI'" font-size="13" lengthAdjust="spacing" textLength="97.2271" x="478" y="294.9404">like_id : INT &#171;PK&#187;</text><line style="stroke:#334155;stroke-width:1;" x1="460" x2="598.5591" y1="302.2031" y2="302.2031"/><text fill="#000000" font-family="'Segoe UI'" font-size="13" lengthAdjust="spacing" textLength="100.9277" x="465" y="320.2314">user_id : INT &#171;FK&#187;</text><text fill="#000000" font-family="'Segoe UI'" font-size="13" lengthAdjust="spacing" textLength="109.002" x="465" y="337.5225">game_id : INT &#171;FK&#187;</text><text fill="#000000" font-family="'Segoe UI'" font-size="13" lengthAdjust="spacing" textLength="128.5591" x="465" y="354.8135">created_at : DATETIME</text></g><!--class COMMENTS--><g class="entity" data-qualified-name="COMMENTS" data-source-line="47" id="ent0006"><rect fill="#F8FAFC" height="129.7461" rx="5" ry="5" style="stroke:#334155;stroke-width:0.5;" width="157.2471" x="451" y="403.6211"/><text fill="#111827" font-family="'Segoe UI'" font-size="13" lengthAdjust="spacing" textLength="60.0933" x="499.5769" y="422.6494">comments</text><line style="stroke:#334155;stroke-width:0.5;" x1="452" x2="607.2471" y1="430.9121" y2="430.9121"/><g data-visibility-modifier="IE_MANDATORY"><ellipse cx="462" cy="445.0576" fill="#000000" rx="3" ry="3" style="stroke:#000000;stroke-width:1;"/></g><text fill="#000000" font-family="'Segoe UI'" font-size="13" lengthAdjust="spacing" textLength="132.2471" x="470" y="448.9404">comment_id : INT &#171;PK&#187;</text><line style="stroke:#334155;stroke-width:1;" x1="452" x2="607.2471" y1="456.2031" y2="456.2031"/><text fill="#000000" font-family="'Segoe UI'" font-size="13" lengthAdjust="spacing" textLength="109.002" x="457" y="474.2314">game_id : INT &#171;FK&#187;</text><text fill="#000000" font-family="'Segoe UI'" font-size="13" lengthAdjust="spacing" textLength="100.9277" x="457" y="491.5225">user_id : INT &#171;FK&#187;</text><text fill="#000000" font-family="'Segoe UI'" font-size="13" lengthAdjust="spacing" textLength="81.7515" x="457" y="508.8135">content : TEXT</text><text fill="#000000" font-family="'Segoe UI'" font-size="13" lengthAdjust="spacing" textLength="128.5591" x="457" y="526.1045">created_at : DATETIME</text></g><!--link USERS to GAMES--><g class="link" data-entity-1="ent0002" data-entity-2="ent0003" data-link-type="crowfoot" data-source-line="56" id="lnk7"><path codeLine="56" d="M181.04,309.1211 C200.65,309.1211 195.46,309.1211 214.7,309.1211" fill="none" id="USERS-GAMES" style="stroke:#1F2937;stroke-width:1;"/><line style="stroke:#1F2937;stroke-width:1;" x1="177.04" x2="177.04" y1="313.1211" y2="305.1211"/><line style="stroke:#1F2937;stroke-width:1;" x1="180.04" x2="180.04" y1="313.1211" y2="305.1211"/><line style="stroke:#1F2937;stroke-width:1;" x1="181.04" x2="173.04" y1="309.1211" y2="309.1211"/><line style="stroke:#1F2937;stroke-width:1;" x1="224.7" x2="232.7" y1="309.1211" y2="303.1211"/><line style="stroke:#1F2937;stroke-width:1;" x1="224.7" x2="232.7" y1="309.1211" y2="315.1211"/><line style="stroke:#1F2937;stroke-width:1;" x1="224.7" x2="232.7" y1="309.1211" y2="309.1211"/><ellipse cx="218.7" cy="309.1211" fill="none" rx="4" ry="4" style="stroke:#1F2937;stroke-width:1;"/><text fill="#000000" font-family="'Segoe UI'" font-size="13" lengthAdjust="spacing" textLength="38.105" x="163.87" y="324.1494">tworzy</text></g><!--link GAMES to PLAYTHROUGHS--><g class="link" data-entity-1="ent0003" data-entity-2="ent0004" data-link-type="crowfoot" data-source-line="57" id="lnk8"><path codeLine="57" d="M391.3,194.1211 C410.49,194.1211 405.26,194.1211 424.96,194.1211" fill="none" id="GAMES-PLAYTHROUGHS" style="stroke:#1F2937;stroke-width:1;"/><line style="stroke:#1F2937;stroke-width:1;" x1="387.3" x2="387.3" y1="198.1211" y2="190.1211"/><line style="stroke:#1F2937;stroke-width:1;" x1="390.3" x2="390.3" y1="198.1211" y2="190.1211"/><line style="stroke:#1F2937;stroke-width:1;" x1="391.3" x2="383.3" y1="194.1211" y2="194.1211"/><line style="stroke:#1F2937;stroke-width:1;" x1="434.96" x2="442.96" y1="194.1211" y2="188.1211"/><line style="stroke:#1F2937;stroke-width:1;" x1="434.96" x2="442.96" y1="194.1211" y2="200.1211"/><line style="stroke:#1F2937;stroke-width:1;" x1="434.96" x2="442.96" y1="194.1211" y2="194.1211"/><ellipse cx="428.96" cy="194.1211" fill="none" rx="4" ry="4" style="stroke:#1F2937;stroke-width:1;"/><text fill="#000000" font-family="'Segoe UI'" font-size="13" lengthAdjust="spacing" textLength="44.8081" x="368.13" y="190.1494">posiada</text></g><!--link USERS to PLAYTHROUGHS--><g class="link" data-entity-1="ent0002" data-entity-2="ent0004" data-link-type="crowfoot" data-source-line="58" id="lnk9"><path codeLine="58" d="M181.25,375.6211 C286.74,375.6211 447,375.6211 447,375.6211 C447,375.6211 447,300.7211 447,228.8711" fill="none" id="USERS-PLAYTHROUGHS" style="stroke:#1F2937;stroke-width:1;"/><line style="stroke:#1F2937;stroke-width:1;" x1="177.25" x2="177.25" y1="379.6211" y2="371.6211"/><line style="stroke:#1F2937;stroke-width:1;" x1="180.25" x2="180.25" y1="379.6211" y2="371.6211"/><line style="stroke:#1F2937;stroke-width:1;" x1="181.25" x2="173.25" y1="375.6211" y2="375.6211"/><line style="stroke:#1F2937;stroke-width:1;" x1="447" x2="441" y1="218.8711" y2="210.8711"/><line style="stroke:#1F2937;stroke-width:1;" x1="447" x2="453" y1="218.8711" y2="210.8711"/><line style="stroke:#1F2937;stroke-width:1;" x1="447" x2="447" y1="218.8711" y2="210.8711"/><ellipse cx="447" cy="224.8711" fill="none" rx="4" ry="4" style="stroke:#1F2937;stroke-width:1;"/><text fill="#000000" font-family="'Segoe UI'" font-size="13" lengthAdjust="spacing" textLength="52.4697" x="393.5" y="390.6494">prowadzi</text></g><!--link GAMES to COMMENTS--><g class="link" data-entity-1="ent0003" data-entity-2="ent0006" data-link-type="crowfoot" data-source-line="59" id="lnk10"><path codeLine="59" d="M391.22,322.9511 C427.39,322.9511 455,322.9511 455,322.9511 C455,322.9511 455,346.6711 455,385.4611" fill="none" id="GAMES-COMMENTS" style="stroke:#1F2937;stroke-width:1;"/><line style="stroke:#1F2937;stroke-width:1;" x1="387.22" x2="387.22" y1="326.9511" y2="318.9511"/><line style="stroke:#1F2937;stroke-width:1;" x1="390.22" x2="390.22" y1="326.9511" y2="318.9511"/><line style="stroke:#1F2937;stroke-width:1;" x1="391.22" x2="383.22" y1="322.9511" y2="322.9511"/><line style="stroke:#1F2937;stroke-width:1;" x1="455" x2="461" y1="395.4611" y2="403.4611"/><line style="stroke:#1F2937;stroke-width:1;" x1="455" x2="449" y1="395.4611" y2="403.4611"/><line style="stroke:#1F2937;stroke-width:1;" x1="455" x2="455" y1="395.4611" y2="403.4611"/><ellipse cx="455" cy="389.4611" fill="none" rx="4" ry="4" style="stroke:#1F2937;stroke-width:1;"/><text fill="#000000" font-family="'Segoe UI'" font-size="13" lengthAdjust="spacing" textLength="17.8115" x="437" y="342.3494">ma</text></g><!--link USERS to COMMENTS--><g class="link" data-entity-1="ent0002" data-entity-2="ent0006" data-link-type="crowfoot" data-source-line="60" id="lnk11"><path codeLine="60" d="M181.18,413.1211 C260.94,413.1211 354.47,413.1211 432.72,413.1211" fill="none" id="USERS-COMMENTS" style="stroke:#1F2937;stroke-width:1;"/><line style="stroke:#1F2937;stroke-width:1;" x1="177.18" x2="177.18" y1="417.1211" y2="409.1211"/><line style="stroke:#1F2937;stroke-width:1;" x1="180.18" x2="180.18" y1="417.1211" y2="409.1211"/><line style="stroke:#1F2937;stroke-width:1;" x1="181.18" x2="173.18" y1="413.1211" y2="413.1211"/><line style="stroke:#1F2937;stroke-width:1;" x1="442.72" x2="450.72" y1="413.1211" y2="407.1211"/><line style="stroke:#1F2937;stroke-width:1;" x1="442.72" x2="450.72" y1="413.1211" y2="419.1211"/><line style="stroke:#1F2937;stroke-width:1;" x1="442.72" x2="450.72" y1="413.1211" y2="413.1211"/><ellipse cx="436.72" cy="413.1211" fill="none" rx="4" ry="4" style="stroke:#1F2937;stroke-width:1;"/><text fill="#000000" font-family="'Segoe UI'" font-size="13" lengthAdjust="spacing" textLength="39.4888" x="271.95" y="428.1494">dodaje</text></g><!--link USERS to LIKES--><g class="link" data-entity-1="ent0002" data-entity-2="ent0005" data-link-type="crowfoot" data-source-line="61" id="lnk12"><path codeLine="61" d="M181.02,389.6211 C308.53,389.6211 530,389.6211 530,389.6211 C530,389.6211 530,395.0611 530,379.6511" fill="none" id="USERS-LIKES" style="stroke:#1F2937;stroke-width:1;"/><line style="stroke:#1F2937;stroke-width:1;" x1="177.02" x2="177.02" y1="393.6211" y2="385.6211"/><line style="stroke:#1F2937;stroke-width:1;" x1="180.02" x2="180.02" y1="393.6211" y2="385.6211"/><line style="stroke:#1F2937;stroke-width:1;" x1="181.02" x2="173.02" y1="389.6211" y2="389.6211"/><line style="stroke:#1F2937;stroke-width:1;" x1="530" x2="524" y1="369.6511" y2="361.6511"/><line style="stroke:#1F2937;stroke-width:1;" x1="530" x2="536" y1="369.6511" y2="361.6511"/><line style="stroke:#1F2937;stroke-width:1;" x1="530" x2="530" y1="369.6511" y2="361.6511"/><ellipse cx="530" cy="375.6511" fill="none" rx="4" ry="4" style="stroke:#1F2937;stroke-width:1;"/><text fill="#000000" font-family="'Segoe UI'" font-size="13" lengthAdjust="spacing" textLength="51.3779" x="313.49" y="404.6494">wystawia</text></g><!--link GAMES to LIKES--><g class="link" data-entity-1="ent0003" data-entity-2="ent0005" data-link-type="crowfoot" data-source-line="62" id="lnk13"><path codeLine="62" d="M391.3,286.2911 C415.76,286.2911 416.79,286.2911 440.89,286.2911" fill="none" id="GAMES-LIKES" style="stroke:#1F2937;stroke-width:1;"/><line style="stroke:#1F2937;stroke-width:1;" x1="387.3" x2="387.3" y1="290.2911" y2="282.2911"/><line style="stroke:#1F2937;stroke-width:1;" x1="390.3" x2="390.3" y1="290.2911" y2="282.2911"/><line style="stroke:#1F2937;stroke-width:1;" x1="391.3" x2="383.3" y1="286.2911" y2="286.2911"/><line style="stroke:#1F2937;stroke-width:1;" x1="450.89" x2="458.89" y1="286.2911" y2="280.2911"/><line style="stroke:#1F2937;stroke-width:1;" x1="450.89" x2="458.89" y1="286.2911" y2="292.2911"/><line style="stroke:#1F2937;stroke-width:1;" x1="450.89" x2="458.89" y1="286.2911" y2="286.2911"/><ellipse cx="444.89" cy="286.2911" fill="none" rx="4" ry="4" style="stroke:#1F2937;stroke-width:1;"/><text fill="#000000" font-family="'Segoe UI'" font-size="13" lengthAdjust="spacing" textLength="57.2114" x="363.09" y="301.3194">otrzymuje</text></g><?plantuml-src hLDDRvj04BtpAwOvLg8_m8eYqPZ6RcmJOLAb9xHXjp3kmgBza4MI_lSE0SUi6_TGzOAOzsP6xytCVi2ca8uBCBQJuXEwMWOMhHGmnn8jap1tJIbKOo0aY9MQrH2dWHG_B5W56ilA0aSj2ekg2GBHK7a75yu8RIw06RZVnkaMdWE0Zz2ZENAOmNAJmUNbtUtL5H5XI9-UQrWjYFmMfTUBA2LGr0obXxJCcBtIFA-OgJpc4HN5MVoGKR1JsEISsRxTFChYRBcE2PRCs5og4fif_kkekoG5W-wRQ1qVTFVeETtCsKfvhhuCx337gK8kJA6nxITrLFhQkr2D9Gc4Vjqc6qBHvArxb6WgqJV-d2IhEEg9GWjonNDcVMUkvU_W4sUjP9sjj79bDHYyMqNViqMQtDyi3ZudEUVidevYD7kwsH5-pJPssCDehG-TyGP3aFudKn9_ZkjQBM_VrjMZVpkpSqB_XD-VzaH0eUgQ_WSDrybw7M-oWuoH-p-JF5x8U3TdfGqFxkKb3DNpUCKpiFHcdhfW24VEEu0PjCeWuyolFytHQi_u4_gDtdpFe3wfdr1SSROJFZriRGRxZavWZyplUs2L9UsrsudV?></g></svg>