<?plantuml 1.2026.2?><svg xmlns="http://www.w3.org/2000/svg" xmlns:xlink="http://www.w3.org/1999/xlink" contentStyleType="text/css" data-diagram-type="SEQUENCE" height="453px" preserveAspectRatio="none" style="width:936px;height:453px;background:#FFFFFF;" version="1.1" viewBox="0 0 936 453" width="936px" zoomAndPan="magnify"><defs/><g><g class="participant-lifeline" data-entity-uid="part1" data-qualified-name="E" id="part1-lifeline"><g><title>Edytor .React . p5.js.</title><rect fill="#000000" fill-opacity="0.00000" height="378.8672" width="8" x="95.0386" y="67.3516"/><line style="stroke:#334155;stroke-width:0.5;stroke-dasharray:5,5;" x1="99" x2="99" y1="67.3516" y2="446.2188"/></g></g><g class="participant-lifeline" data-entity-uid="part2" data-qualified-name="MJ" id="part2-lifeline"><g><title>Middleware JWT</title><rect fill="#000000" fill-opacity="0.00000" height="378.8672" width="8" x="303.8047" y="67.3516"/><line style="stroke:#334155;stroke-width:0.5;stroke-dasharray:5,5;" x1="307.407" x2="307.407" y1="67.3516" y2="446.2188"/></g></g><g class="participant-lifeline" data-entity-uid="part3" data-qualified-name="G" id="part3-lifeline"><g><title>Route games.js</title><rect fill="#000000" fill-opacity="0.00000" height="378.8672" width="8" x="567.3979" y="67.3516"/><line style="stroke:#334155;stroke-width:0.5;stroke-dasharray:5,5;" x1="571.2375" x2="571.2375" y1="67.3516" y2="446.2188"/></g></g><g class="participant-lifeline" data-entity-uid="part4" data-qualified-name="GM" id="part4-lifeline"><g><title>Model Game</title><rect fill="#000000" fill-opacity="0.00000" height="378.8672" width="8" x="737.0142" y="67.3516"/><line style="stroke:#334155;stroke-width:0.5;stroke-dasharray:5,5;" x1="740.8042" x2="740.8042" y1="67.3516" y2="446.2188"/></g></g><g class="participant-lifeline" data-entity-uid="part5" data-qualified-name="DB" id="part5-lifeline"><g><title>MySQL</title><rect fill="#000000" fill-opacity="0.00000" height="378.8672" width="8" x="897.2104" y="67.3516"/><line style="stroke:#334155;stroke-width:0.5;stroke-dasharray:5,5;" x1="900.5396" x2="900.5396" y1="67.3516" y2="446.2188"/></g></g><g class="participant participant-head" data-entity-uid="part1" data-qualified-name="E" id="part1-head"><rect fill="#E2E8F0" height="30.3516" rx="5" ry="5" style="stroke:#334155;stroke-width:0.5;" width="140.0771" x="29" y="36"/><text fill="#111827" font-family="'Book Antiqua'" font-size="13" lengthAdjust="spacing" textLength="126.0771" x="36" y="56.4951">Edytor (React + p5.js)</text></g><g class="participant participant-head" data-entity-uid="part2" data-qualified-name="MJ" id="part2-head"><rect fill="#E2E8F0" height="30.3516" rx="5" ry="5" style="stroke:#334155;stroke-width:0.5;" width="110.7954" x="252.407" y="36"/><text fill="#111827" font-family="'Book Antiqua'" font-size="13" lengthAdjust="spacing" textLength="96.7954" x="259.407" y="56.4951">Middleware JWT</text></g><g class="participant participant-head" data-entity-uid="part3" data-qualified-name="G" id="part3-head"><rect fill="#E2E8F0" height="30.3516" rx="5" ry="5" style="stroke:#334155;stroke-width:0.5;" width="104.3208" x="519.2375" y="36"/><text fill="#111827" font-family="'Book Antiqua'" font-size="13" lengthAdjust="spacing" textLength="90.3208" x="526.2375" y="56.4951">Route games.js</text></g><g class="participant participant-head" data-entity-uid="part4" data-qualified-name="GM" id="part4-head"><rect fill="#E2E8F0" height="30.3516" rx="5" ry="5" style="stroke:#334155;stroke-width:0.5;" width="88.4199" x="696.8042" y="36"/><text fill="#111827" font-family="'Book Antiqua'" font-size="13" lengthAdjust="spacing" textLength="74.4199" x="703.8042" y="56.4951">Model Game</text></g><g class="participant participant-head" data-entity-uid="part5" data-qualified-name="DB" id="part5-head"><text fill="#000000" font-family="'Book Antiqua'" font-size="13" lengthAdjust="spacing" textLength="43.3418" x="876.5396" y="64.4951">MySQL</text><path d="M883.2104,15 C883.2104,5 901.2104,5 901.2104,5 C901.2104,5 919.2104,5 919.2104,15 L919.2104,41 C919.2104,51 901.2104,51 901.2104,51 C901.2104,51 883.2104,51 883.2104,41 L883.2104,15" fill="#E2E2F0" style="stroke:#181818;stroke-width:0.5;"/><path d="M883.2104,15 C883.2104,25 901.2104,25 901.2104,25 C901.2104,25 919.2104,25 919.2104,15" fill="none" style="stroke:#181818;stroke-width:0.5;"/></g><g class="message" data-entity-1="part1" data-entity-2="part1" id="msg1"><line style="stroke:#1F2937;stroke-width:1;" x1="99.0386" x2="141.0386" y1="99.7031" y2="99.7031"/><line style="stroke:#1F2937;stroke-width:1;" x1="141.0386" x2="141.0386" y1="99.7031" y2="112.7031"/><line style="stroke:#1F2937;stroke-width:1;" x1="100.0386" x2="141.0386" y1="112.7031" y2="112.7031"/><polygon fill="#1F2937" points="110.0386,108.7031,100.0386,112.7031,110.0386,116.7031,106.0386,112.7031" style="stroke:#1F2937;stroke-width:1;"/><text fill="#000000" font-family="'Book Antiqua'" font-size="13" font-weight="bold" lengthAdjust="spacing" textLength="7.23" x="106.0386" y="94.8467">1</text><text fill="#000000" font-family="'Book Antiqua'" font-size="13" lengthAdjust="spacing" textLength="183.5361" x="117.2686" y="94.8467">Zebranie stanu kanwy do JSON</text></g><g class="message" data-entity-1="part1" data-entity-2="part2" id="msg2"><polygon fill="#1F2937" points="295.8047,155.4063,305.8047,159.4063,295.8047,163.4063,299.8047,159.4063" style="stroke:#1F2937;stroke-width:1;"/><line style="stroke:#1F2937;stroke-width:1;" x1="99.0386" x2="301.8047" y1="159.4063" y2="159.4063"/><text fill="#000000" font-family="'Book Antiqua'" font-size="13" font-weight="bold" lengthAdjust="spacing" textLength="7.23" x="106.0386" y="146.374">2</text><text fill="#000000" font-family="'Book Antiqua'" font-size="13" lengthAdjust="spacing" textLength="102.5972" x="117.2686" y="138.1982">POST /api/games</text><text fill="#000000" font-family="'Book Antiqua'" font-size="13" lengthAdjust="spacing" textLength="105.8662" x="117.2686" y="154.5498">(dane gry + token)</text></g><g class="message" data-entity-1="part2" data-entity-2="part2" id="msg3"><line style="stroke:#1F2937;stroke-width:1;" x1="307.8047" x2="349.8047" y1="189.7578" y2="189.7578"/><line style="stroke:#1F2937;stroke-width:1;" x1="349.8047" x2="349.8047" y1="189.7578" y2="202.7578"/><line style="stroke:#1F2937;stroke-width:1;" x1="308.8047" x2="349.8047" y1="202.7578" y2="202.7578"/><polygon fill="#1F2937" points="318.8047,198.7578,308.8047,202.7578,318.8047,206.7578,314.8047,202.7578" style="stroke:#1F2937;stroke-width:1;"/><text fill="#000000" font-family="'Book Antiqua'" font-size="13" font-weight="bold" lengthAdjust="spacing" textLength="7.23" x="314.8047" y="184.9014">3</text><text fill="#000000" font-family="'Book Antiqua'" font-size="13" lengthAdjust="spacing" textLength="140.1436" x="326.0347" y="184.9014">Weryfikacja tokenu JWT</text></g><g class="message" data-entity-1="part2" data-entity-2="part3" id="msg4"><polygon fill="#1F2937" points="559.3979,229.1094,569.3979,233.1094,559.3979,237.1094,563.3979,233.1094" style="stroke:#1F2937;stroke-width:1;"/><line style="stroke:#1F2937;stroke-width:1;" x1="307.8047" x2="565.3979" y1="233.1094" y2="233.1094"/><text fill="#000000" font-family="'Book Antiqua'" font-size="13" font-weight="bold" lengthAdjust="spacing" textLength="7.23" x="314.8047" y="228.2529">4</text><text fill="#000000" font-family="'Book Antiqua'" font-size="13" lengthAdjust="spacing" textLength="228.3633" x="326.0347" y="228.2529">Przekazanie zadania uwierzytelnionego</text></g><g class="message" data-entity-1="part3" data-entity-2="part4" id="msg5"><polygon fill="#1F2937" points="729.0142,259.4609,739.0142,263.4609,729.0142,267.4609,733.0142,263.4609" style="stroke:#1F2937;stroke-width:1;"/><line style="stroke:#1F2937;stroke-width:1;" x1="571.3979" x2="735.0142" y1="263.4609" y2="263.4609"/><text fill="#000000" font-family="'Book Antiqua'" font-size="13" font-weight="bold" lengthAdjust="spacing" textLength="7.23" x="578.3979" y="258.6045">5</text><text fill="#000000" font-family="'Book Antiqua'" font-size="13" lengthAdjust="spacing" textLength="134.3862" x="589.6279" y="258.6045">Utworzenie rekordu gry</text></g><g class="message" data-entity-1="part4" data-entity-2="part5" id="msg6"><polygon fill="#1F2937" points="889.2104,289.8125,899.2104,293.8125,889.2104,297.8125,893.2104,293.8125" style="stroke:#1F2937;stroke-width:1;"/><line style="stroke:#1F2937;stroke-width:1;" x1="741.0142" x2="895.2104" y1="293.8125" y2="293.8125"/><text fill="#000000" font-family="'Book Antiqua'" font-size="13" font-weight="bold" lengthAdjust="spacing" textLength="7.23" x="748.0142" y="288.9561">6</text><text fill="#000000" font-family="'Book Antiqua'" font-size="13" lengthAdjust="spacing" textLength="124.9663" x="759.2441" y="288.9561">INSERT INTO games</text></g><g class="message" data-entity-1="part5" data-entity-2="part4" id="msg7"><polygon fill="#1F2937" points="752.0142,320.1641,742.0142,324.1641,752.0142,328.1641,748.0142,324.1641" style="stroke:#1F2937;stroke-width:1;"/><line style="stroke:#1F2937;stroke-width:1;stroke-dasharray:2,2;" x1="746.0142" x2="900.2104" y1="324.1641" y2="324.1641"/><text fill="#000000" font-family="'Book Antiqua'" font-size="13" font-weight="bold" lengthAdjust="spacing" textLength="7.23" x="758.0142" y="319.3076">7</text><text fill="#000000" font-family="'Book Antiqua'" font-size="13" lengthAdjust="spacing" textLength="49.8672" x="769.2441" y="319.3076">game_id</text></g><g class="message" data-entity-1="part4" data-entity-2="part3" id="msg8"><polygon fill="#1F2937" points="582.3979,350.5156,572.3979,354.5156,582.3979,358.5156,578.3979,354.5156" style="stroke:#1F2937;stroke-width:1;"/><line style="stroke:#1F2937;stroke-width:1;stroke-dasharray:2,2;" x1="576.3979" x2="740.0142" y1="354.5156" y2="354.5156"/><text fill="#000000" font-family="'Book Antiqua'" font-size="13" font-weight="bold" lengthAdjust="spacing" textLength="7.23" x="588.3979" y="349.6592">8</text><text fill="#000000" font-family="'Book Antiqua'" font-size="13" lengthAdjust="spacing" textLength="49.8672" x="599.6279" y="349.6592">game_id</text></g><g class="message" data-entity-1="part3" data-entity-2="part1" id="msg9"><polygon fill="#1F2937" points="110.0386,380.8672,100.0386,384.8672,110.0386,388.8672,106.0386,384.8672" style="stroke:#1F2937;stroke-width:1;"/><line style="stroke:#1F2937;stroke-width:1;stroke-dasharray:2,2;" x1="104.0386" x2="570.3979" y1="384.8672" y2="384.8672"/><text fill="#000000" font-family="'Book Antiqua'" font-size="13" font-weight="bold" lengthAdjust="spacing" textLength="7.23" x="116.0386" y="380.0107">9</text><text fill="#000000" font-family="'Book Antiqua'" font-size="13" lengthAdjust="spacing" textLength="136.2334" x="127.2686" y="380.0107">201 Created + game_id</text></g><g class="message" data-entity-1="part1" data-entity-2="part1" id="msg10"><line style="stroke:#1F2937;stroke-width:1;" x1="99.0386" x2="141.0386" y1="415.2188" y2="415.2188"/><line style="stroke:#1F2937;stroke-width:1;" x1="141.0386" x2="141.0386" y1="415.2188" y2="428.2188"/><line style="stroke:#1F2937;stroke-width:1;" x1="100.0386" x2="141.0386" y1="428.2188" y2="428.2188"/><polygon fill="#1F2937" points="110.0386,424.2188,100.0386,428.2188,110.0386,432.2188,106.0386,428.2188" style="stroke:#1F2937;stroke-width:1;"/><text fill="#000000" font-family="'Book Antiqua'" font-size="13" font-weight="bold" lengthAdjust="spacing" textLength="14.46" x="106.0386" y="410.3623">10</text><text fill="#000000" font-family="'Book Antiqua'" font-size="13" lengthAdjust="spacing" textLength="151.7534" x="124.4985" y="410.3623">Aktualizacja stanu edytora</text></g><?plantuml-src NP5FJm8n4CNl_HGZ9uZXR_J2mKHait7Z0WA6n9YOWGvOTcattJQm--djTa75KzFtVZFJURqHSfDQJf2R8gMEi8UKVGbttofbrkh4yaJ833KUO8RQY8t8K9ePSYxa3WPtV_oHEbtqVeynj4P9UrYJPjbl9JG2NXYbeJadt1YuXUo-iyzR3S0SWcio5fodT4HD4AsMdeYZQsIkh27OuO5oryKZuRycYbCAeIDgDsOS3Qun9-SLYzSNBuz7Z0NGVe1W2E-qrYX55GbA2mdAOm5SGRIOJceeZeOmcowMqCLCTFtq3zdaADrJTE5sCYeXsM9nTA5Nf8kjI72pnzgqrKfd87JTT4a9bdviYQwJGB17GRei3ALIA4axnK9FnqDuCqVbAYfQKw8qjzLW5iOLC1uDuNco2EPBToodTJfiF8BskReIFWNtU3t-H_62os3GwyEJ9ZJ4tJeN-vBGOs8ifgBqwzGfaVzL_0O0?></g></svg>