<?plantuml 1.2026.2?><svg xmlns="http://www.w3.org/2000/svg" xmlns:xlink="http://www.w3.org/1999/xlink" contentStyleType="text/css" data-diagram-type="SEQUENCE" height="576px" preserveAspectRatio="none" style="width:893px;height:576px;background:#FFFFFF;" version="1.1" viewBox="0 0 893 576" width="893px" zoomAndPan="magnify"><title>Zapis gry przez edytor</title><defs/><g><text fill="#000000" font-family="'Segoe UI'" font-size="14" font-weight="bold" lengthAdjust="spacing" textLength="146.8018" x="369.4089" y="30.1074">Zapis gry przez edytor</text><g class="participant-lifeline" data-entity-uid="part1" data-qualified-name="E" id="part1-lifeline"><g><title>Edytor .React . p5.js.</title><rect fill="#000000" fill-opacity="0.00000" height="389.2012" width="8" x="69.1089" y="107.9121"/><line style="stroke:#334155;stroke-width:0.5;stroke-dasharray:5,5;" x1="73" x2="73" y1="107.9121" y2="497.1133"/></g></g><g class="participant-lifeline" data-entity-uid="part2" data-qualified-name="MJ" id="part2-lifeline"><g><title>Middleware JWT</title><rect fill="#000000" fill-opacity="0.00000" height="389.2012" width="8" x="272.835" y="107.9121"/><line style="stroke:#334155;stroke-width:0.5;stroke-dasharray:5,5;" x1="276.5544" x2="276.5544" y1="107.9121" y2="497.1133"/></g></g><g class="participant-lifeline" data-entity-uid="part3" data-qualified-name="G" id="part3-lifeline"><g><title>Route games.js</title><rect fill="#000000" fill-opacity="0.00000" height="389.2012" width="8" x="531.9531" y="107.9121"/><line style="stroke:#334155;stroke-width:0.5;stroke-dasharray:5,5;" x1="535.5637" x2="535.5637" y1="107.9121" y2="497.1133"/></g></g><g class="participant-lifeline" data-entity-uid="part4" data-qualified-name="GM" id="part4-lifeline"><g><title>Model Game</title><rect fill="#000000" fill-opacity="0.00000" height="389.2012" width="8" x="702.7944" y="107.9121"/><line style="stroke:#334155;stroke-width:0.5;stroke-dasharray:5,5;" x1="705.8035" x2="705.8035" y1="107.9121" y2="497.1133"/></g></g><g class="participant-lifeline" data-entity-uid="part5" data-qualified-name="DB" id="part5-lifeline"><g><title>MySQL</title><rect fill="#000000" fill-opacity="0.00000" height="389.2012" width="8" x="854.2246" y="107.9121"/><line style="stroke:#334155;stroke-width:0.5;stroke-dasharray:5,5;" x1="857.8296" x2="857.8296" y1="107.9121" y2="497.1133"/></g></g><g class="participant participant-head" data-entity-uid="part1" data-qualified-name="E" id="part1-head"><rect fill="#E2E8F0" height="31.291" rx="5" ry="5" style="stroke:#334155;stroke-width:0.5;" width="136.2178" x="5" y="75.6211"/><text fill="#111827" font-family="'Segoe UI'" font-size="13" lengthAdjust="spacing" textLength="122.2178" x="12" y="96.6494">Edytor (React + p5.js)</text></g><g class="participant participant-tail" data-entity-uid="part1" data-qualified-name="E" id="part1-tail"><rect fill="#E2E8F0" height="31.291" rx="5" ry="5" style="stroke:#334155;stroke-width:0.5;" width="136.2178" x="5" y="496.1133"/><text fill="#111827" font-family="'Segoe UI'" font-size="13" lengthAdjust="spacing" textLength="122.2178" x="12" y="517.1416">Edytor (React + p5.js)</text></g><g class="participant participant-head" data-entity-uid="part2" data-qualified-name="MJ" id="part2-head"><rect fill="#E2E8F0" height="31.291" rx="5" ry="5" style="stroke:#334155;stroke-width:0.5;" width="108.561" x="222.5544" y="75.6211"/><text fill="#111827" font-family="'Segoe UI'" font-size="13" lengthAdjust="spacing" textLength="94.561" x="229.5544" y="96.6494">Middleware JWT</text></g><g class="participant participant-tail" data-entity-uid="part2" data-qualified-name="MJ" id="part2-tail"><rect fill="#E2E8F0" height="31.291" rx="5" ry="5" style="stroke:#334155;stroke-width:0.5;" width="108.561" x="222.5544" y="496.1133"/><text fill="#111827" font-family="'Segoe UI'" font-size="13" lengthAdjust="spacing" textLength="94.561" x="229.5544" y="517.1416">Middleware JWT</text></g><g class="participant participant-head" data-entity-uid="part3" data-qualified-name="G" id="part3-head"><rect fill="#E2E8F0" height="31.291" rx="5" ry="5" style="stroke:#334155;stroke-width:0.5;" width="100.7788" x="485.5637" y="75.6211"/><text fill="#111827" font-family="'Segoe UI'" font-size="13" lengthAdjust="spacing" textLength="86.7788" x="492.5637" y="96.6494">Route games.js</text></g><g class="participant participant-tail" data-entity-uid="part3" data-qualified-name="G" id="part3-tail"><rect fill="#E2E8F0" height="31.291" rx="5" ry="5" style="stroke:#334155;stroke-width:0.5;" width="100.7788" x="485.5637" y="496.1133"/><text fill="#111827" font-family="'Segoe UI'" font-size="13" lengthAdjust="spacing" textLength="86.7788" x="492.5637" y="517.1416">Route games.js</text></g><g class="participant participant-head" data-entity-uid="part4" data-qualified-name="GM" id="part4-head"><rect fill="#E2E8F0" height="31.291" rx="5" ry="5" style="stroke:#334155;stroke-width:0.5;" width="87.9819" x="662.8035" y="75.6211"/><text fill="#111827" font-family="'Segoe UI'" font-size="13" lengthAdjust="spacing" textLength="73.9819" x="669.8035" y="96.6494">Model Game</text></g><g class="participant participant-tail" data-entity-uid="part4" data-qualified-name="GM" id="part4-tail"><rect fill="#E2E8F0" height="31.291" rx="5" ry="5" style="stroke:#334155;stroke-width:0.5;" width="87.9819" x="662.8035" y="496.1133"/><text fill="#111827" font-family="'Segoe UI'" font-size="13" lengthAdjust="spacing" textLength="73.9819" x="669.8035" y="517.1416">Model Game</text></g><g class="participant participant-head" data-entity-uid="part5" data-qualified-name="DB" id="part5-head"><text fill="#000000" font-family="'Segoe UI'" font-size="13" lengthAdjust="spacing" textLength="40.79" x="834.8296" y="104.6494">MySQL</text><path d="M840.2246,54.6211 C840.2246,44.6211 858.2246,44.6211 858.2246,44.6211 C858.2246,44.6211 876.2246,44.6211 876.2246,54.6211 L876.2246,80.6211 C876.2246,90.6211 858.2246,90.6211 858.2246,90.6211 C858.2246,90.6211 840.2246,90.6211 840.2246,80.6211 L840.2246,54.6211" fill="#E2E2F0" style="stroke:#181818;stroke-width:0.5;"/><path d="M840.2246,54.6211 C840.2246,64.6211 858.2246,64.6211 858.2246,64.6211 C858.2246,64.6211 876.2246,64.6211 876.2246,54.6211" fill="none" style="stroke:#181818;stroke-width:0.5;"/></g><g class="participant participant-tail" data-entity-uid="part5" data-qualified-name="DB" id="part5-tail"><text fill="#000000" font-family="'Segoe UI'" font-size="13" lengthAdjust="spacing" textLength="40.79" x="834.8296" y="510.1416">MySQL</text><path d="M840.2246,523.4043 C840.2246,513.4043 858.2246,513.4043 858.2246,513.4043 C858.2246,513.4043 876.2246,513.4043 876.2246,523.4043 L876.2246,549.4043 C876.2246,559.4043 858.2246,559.4043 858.2246,559.4043 C858.2246,559.4043 840.2246,559.4043 840.2246,549.4043 L840.2246,523.4043" fill="#E2E2F0" style="stroke:#181818;stroke-width:0.5;"/><path d="M840.2246,523.4043 C840.2246,533.4043 858.2246,533.4043 858.2246,533.4043 C858.2246,533.4043 876.2246,533.4043 876.2246,523.4043" fill="none" style="stroke:#181818;stroke-width:0.5;"/></g><g class="message" data-entity-1="part1" data-entity-2="part1" id="msg1"><line style="stroke:#1F2937;stroke-width:1;" x1="73.1089" x2="115.1089" y1="141.2031" y2="141.2031"/><line style="stroke:#1F2937;stroke-width:1;" x1="115.1089" x2="115.1089" y1="141.2031" y2="154.2031"/><line style="stroke:#1F2937;stroke-width:1;" x1="74.1089" x2="115.1089" y1="154.2031" y2="154.2031"/><polygon fill="#1F2937" points="84.1089,150.2031,74.1089,154.2031,84.1089,158.2031,80.1089,154.2031" style="stroke:#1F2937;stroke-width:1;"/><text fill="#000000" font-family="'Segoe UI'" font-size="13" font-weight="bold" lengthAdjust="spacing" textLength="7.4775" x="80.1089" y="135.9404">1</text><text fill="#000000" font-family="'Segoe UI'" font-size="13" lengthAdjust="spacing" textLength="178.2485" x="91.5864" y="135.9404">Zebranie stanu kanwy do JSON</text></g><g class="message" data-entity-1="part1" data-entity-2="part2" id="msg2"><polygon fill="#1F2937" points="264.835,198.7852,274.835,202.7852,264.835,206.7852,268.835,202.7852" style="stroke:#1F2937;stroke-width:1;"/><line style="stroke:#1F2937;stroke-width:1;" x1="73.1089" x2="270.835" y1="202.7852" y2="202.7852"/><text fill="#000000" font-family="'Segoe UI'" font-size="13" font-weight="bold" lengthAdjust="spacing" textLength="7.4775" x="80.1089" y="188.877">2</text><text fill="#000000" font-family="'Segoe UI'" font-size="13" lengthAdjust="spacing" textLength="99.6772" x="91.5864" y="180.2314">POST /api/games</text><text fill="#000000" font-family="'Segoe UI'" font-size="13" lengthAdjust="spacing" textLength="106.9517" x="91.5864" y="197.5225">(dane gry + token)</text></g><g class="message" data-entity-1="part2" data-entity-2="part2" id="msg3"><line style="stroke:#1F2937;stroke-width:1;" x1="276.835" x2="318.835" y1="234.0762" y2="234.0762"/><line style="stroke:#1F2937;stroke-width:1;" x1="318.835" x2="318.835" y1="234.0762" y2="247.0762"/><line style="stroke:#1F2937;stroke-width:1;" x1="277.835" x2="318.835" y1="247.0762" y2="247.0762"/><polygon fill="#1F2937" points="287.835,243.0762,277.835,247.0762,287.835,251.0762,283.835,247.0762" style="stroke:#1F2937;stroke-width:1;"/><text fill="#000000" font-family="'Segoe UI'" font-size="13" font-weight="bold" lengthAdjust="spacing" textLength="7.4775" x="283.835" y="228.8135">3</text><text fill="#000000" font-family="'Segoe UI'" font-size="13" lengthAdjust="spacing" textLength="136.5254" x="295.3125" y="228.8135">Weryfikacja tokenu JWT</text></g><g class="message" data-entity-1="part2" data-entity-2="part3" id="msg4"><polygon fill="#1F2937" points="523.9531,274.3672,533.9531,278.3672,523.9531,282.3672,527.9531,278.3672" style="stroke:#1F2937;stroke-width:1;"/><line style="stroke:#1F2937;stroke-width:1;" x1="276.835" x2="529.9531" y1="278.3672" y2="278.3672"/><text fill="#000000" font-family="'Segoe UI'" font-size="13" font-weight="bold" lengthAdjust="spacing" textLength="7.4775" x="283.835" y="273.1045">4</text><text fill="#000000" font-family="'Segoe UI'" font-size="13" lengthAdjust="spacing" textLength="223.6406" x="295.3125" y="273.1045">Przekazanie zadania uwierzytelnionego</text></g><g class="message" data-entity-1="part3" data-entity-2="part4" id="msg5"><polygon fill="#1F2937" points="694.7944,305.6582,704.7944,309.6582,694.7944,313.6582,698.7944,309.6582" style="stroke:#1F2937;stroke-width:1;"/><line style="stroke:#1F2937;stroke-width:1;" x1="535.9531" x2="700.7944" y1="309.6582" y2="309.6582"/><text fill="#000000" font-family="'Segoe UI'" font-size="13" font-weight="bold" lengthAdjust="spacing" textLength="7.4775" x="542.9531" y="304.3955">5</text><text fill="#000000" font-family="'Segoe UI'" font-size="13" lengthAdjust="spacing" textLength="135.3638" x="554.4307" y="304.3955">Utworzenie rekordu gry</text></g><g class="message" data-entity-1="part4" data-entity-2="part5" id="msg6"><polygon fill="#1F2937" points="846.2246,336.9492,856.2246,340.9492,846.2246,344.9492,850.2246,340.9492" style="stroke:#1F2937;stroke-width:1;"/><line style="stroke:#1F2937;stroke-width:1;" x1="706.7944" x2="852.2246" y1="340.9492" y2="340.9492"/><text fill="#000000" font-family="'Segoe UI'" font-size="13" font-weight="bold" lengthAdjust="spacing" textLength="7.4775" x="713.7944" y="335.6865">6</text><text fill="#000000" font-family="'Segoe UI'" font-size="13" lengthAdjust="spacing" textLength="115.9526" x="725.272" y="335.6865">INSERT INTO games</text></g><g class="message" data-entity-1="part5" data-entity-2="part4" id="msg7"><polygon fill="#1F2937" points="717.7944,368.2402,707.7944,372.2402,717.7944,376.2402,713.7944,372.2402" style="stroke:#1F2937;stroke-width:1;"/><line style="stroke:#1F2937;stroke-width:1;stroke-dasharray:2,2;" x1="711.7944" x2="857.2246" y1="372.2402" y2="372.2402"/><text fill="#000000" font-family="'Segoe UI'" font-size="13" font-weight="bold" lengthAdjust="spacing" textLength="7.4775" x="723.7944" y="366.9775">7</text><text fill="#000000" font-family="'Segoe UI'" font-size="13" lengthAdjust="spacing" textLength="48.4644" x="735.272" y="366.9775">game_id</text></g><g class="message" data-entity-1="part4" data-entity-2="part3" id="msg8"><polygon fill="#1F2937" points="546.9531,399.5313,536.9531,403.5313,546.9531,407.5313,542.9531,403.5313" style="stroke:#1F2937;stroke-width:1;"/><line style="stroke:#1F2937;stroke-width:1;stroke-dasharray:2,2;" x1="540.9531" x2="705.7944" y1="403.5313" y2="403.5313"/><text fill="#000000" font-family="'Segoe UI'" font-size="13" font-weight="bold" lengthAdjust="spacing" textLength="7.4775" x="552.9531" y="398.2686">8</text><text fill="#000000" font-family="'Segoe UI'" font-size="13" lengthAdjust="spacing" textLength="48.4644" x="564.4307" y="398.2686">game_id</text></g><g class="message" data-entity-1="part3" data-entity-2="part1" id="msg9"><polygon fill="#1F2937" points="84.1089,430.8223,74.1089,434.8223,84.1089,438.8223,80.1089,434.8223" style="stroke:#1F2937;stroke-width:1;"/><line style="stroke:#1F2937;stroke-width:1;stroke-dasharray:2,2;" x1="78.1089" x2="534.9531" y1="434.8223" y2="434.8223"/><text fill="#000000" font-family="'Segoe UI'" font-size="13" font-weight="bold" lengthAdjust="spacing" textLength="7.4775" x="90.1089" y="429.5596">9</text><text fill="#000000" font-family="'Segoe UI'" font-size="13" lengthAdjust="spacing" textLength="133.9038" x="101.5864" y="429.5596">201 Created + game_id</text></g><g class="message" data-entity-1="part1" data-entity-2="part1" id="msg10"><line style="stroke:#1F2937;stroke-width:1;" x1="73.1089" x2="115.1089" y1="466.1133" y2="466.1133"/><line style="stroke:#1F2937;stroke-width:1;" x1="115.1089" x2="115.1089" y1="466.1133" y2="479.1133"/><line style="stroke:#1F2937;stroke-width:1;" x1="74.1089" x2="115.1089" y1="479.1133" y2="479.1133"/><polygon fill="#1F2937" points="84.1089,475.1133,74.1089,479.1133,84.1089,483.1133,80.1089,479.1133" style="stroke:#1F2937;stroke-width:1;"/><text fill="#000000" font-family="'Segoe UI'" font-size="13" font-weight="bold" lengthAdjust="spacing" textLength="14.9551" x="80.1089" y="460.8506">10</text><text fill="#000000" font-family="'Segoe UI'" font-size="13" lengthAdjust="spacing" textLength="150.0522" x="99.064" y="460.8506">Aktualizacja stanu edytora</text></g><?plantuml-src NP5HIyCm58NVyokkUzeOsrJmfG-2SwLOxAPhPJ04kMkk8skNb3IXjB_UDDq4VGgSyzrxEIStGkQbvGIrQKkQ2tikcH6c9DXZ9MeuwXOgtL47n5kZD6DeZPBsV23DAjH6vA92QM0KUX_6MyBSm1IgX_cfdem0QmZ_aedWlAG6DK6yopoHn7-HhRA6u8XdgjqMZqJ_bYXE9KIE6Do4SJHum9gSrwRlhrvUBHaBOVO8OG1xEcYKee-AqaA1icc1AuZJpNg0aZY0jqsQmS9bN_ZhdtBCKPBlOGf65IGdB8clz8vq-oqAp4yucBQFT04YjyrLLs3dptReDWa4smZINMkeb499EYeMUJe9uCCqoatqjAP2QMxxmonAUc2r3E1bdORRp3tPPcY7hPOmkqptmfVW7X_E_ofUS1tStzx1ioOqn5sSgtrjwAam5alH-JX3IyElumy0?></g></svg>