<?plantuml 1.2026.2?><svg xmlns="http://www.w3.org/2000/svg" xmlns:xlink="http://www.w3.org/1999/xlink" contentStyleType="text/css" data-diagram-type="DESCRIPTION" height="885px" preserveAspectRatio="none" style="width:406px;height:885px;background:#FFFFFF;" version="1.1" viewBox="0 0 406 885" width="406px" zoomAndPan="magnify"><title>Digital Dungeons - Diagram przypadkow uzycia</title><defs/><g><g class="title" data-source-line="2"><text fill="#000000" font-family="'Segoe UI'" font-size="14" font-weight="bold" lengthAdjust="spacing" textLength="313.8652" x="39.3782" y="25.1074">Digital Dungeons - Diagram przypadkow uzycia</text></g><!--cluster Digital Dungeons--><g class="cluster" data-qualified-name="Digital Dungeons" data-source-line="12" id="ent0007"><rect fill="#F8FAFC" height="833" rx="5" ry="5" style="stroke:#334155;stroke-width:1;" width="209" x="188" y="46.6211"/><text fill="#111827" font-family="'Segoe UI'" font-size="13" font-weight="bold" lengthAdjust="spacing" textLength="106.2852" x="239.3574" y="62.6494">Digital Dungeons</text></g><!--entity UC1--><g class="entity" data-qualified-name="Digital Dungeons.UC1" data-source-line="13" id="ent0008"><ellipse cx="292.3766" cy="848.8477" fill="#EFF6FF" rx="46.3766" ry="15.2266" style="stroke:#1D4ED8;stroke-width:0.5;"/><text fill="#0F172A" font-family="'Segoe UI'" font-size="13" lengthAdjust="spacing" textLength="61.3438" x="261.7047" y="853.9932">Rejestracja</text></g><!--entity UC2--><g class="entity" data-qualified-name="Digital Dungeons.UC2" data-source-line="14" id="ent0009"><ellipse cx="292.5678" cy="708.8477" fill="#EFF6FF" rx="47.0678" ry="15.2266" style="stroke:#1D4ED8;stroke-width:0.5;"/><text fill="#0F172A" font-family="'Segoe UI'" font-size="13" lengthAdjust="spacing" textLength="62.3213" x="261.4072" y="713.9932">Logowanie</text></g><!--entity UC3--><g class="entity" data-qualified-name="Digital Dungeons.UC3" data-source-line="15" id="ent0010"><ellipse cx="292.3702" cy="778.6951" fill="#EFF6FF" rx="88.3702" ry="20.074" style="stroke:#1D4ED8;stroke-width:0.5;"/><text fill="#0F172A" font-family="'Segoe UI'" font-size="13" lengthAdjust="spacing" textLength="147.2339" x="218.7533" y="783.8406">Przegladanie marketplace</text></g><!--entity UC4--><g class="entity" data-qualified-name="Digital Dungeons.UC4" data-source-line="16" id="ent0011"><ellipse cx="292.3151" cy="365.8477" fill="#EFF6FF" rx="59.8151" ry="15.2266" style="stroke:#1D4ED8;stroke-width:0.5;"/><text fill="#0F172A" font-family="'Segoe UI'" font-size="13" lengthAdjust="spacing" textLength="80.3486" x="252.1407" y="370.9932">Tworzenie gry</text></g><!--entity UC5--><g class="entity" data-qualified-name="Digital Dungeons.UC5" data-source-line="17" id="ent0012"><ellipse cx="292.7356" cy="97.8477" fill="#EFF6FF" rx="44.2356" ry="15.2266" style="stroke:#1D4ED8;stroke-width:0.5;"/><text fill="#0F172A" font-family="'Segoe UI'" font-size="13" lengthAdjust="spacing" textLength="58.3159" x="263.5776" y="102.9932">Edycja gry</text></g><!--entity UC6--><g class="entity" data-qualified-name="Digital Dungeons.UC6" data-source-line="18" id="ent0013"><ellipse cx="292.508" cy="162.8477" fill="#EFF6FF" rx="57.508" ry="15.2266" style="stroke:#1D4ED8;stroke-width:0.5;"/><text fill="#0F172A" font-family="'Segoe UI'" font-size="13" lengthAdjust="spacing" textLength="77.0859" x="253.965" y="167.9932">Usuniecie gry</text></g><!--entity UC7--><g class="entity" data-qualified-name="Digital Dungeons.UC7" data-source-line="19" id="ent0014"><ellipse cx="292.6777" cy="227.8477" fill="#EFF6FF" rx="59.1777" ry="15.2266" style="stroke:#1D4ED8;stroke-width:0.5;"/><text fill="#0F172A" font-family="'Segoe UI'" font-size="13" lengthAdjust="spacing" textLength="79.4473" x="252.9541" y="232.9932">Publikacja gry</text></g><!--entity UC8--><g class="entity" data-qualified-name="Digital Dungeons.UC8" data-source-line="20" id="ent0015"><ellipse cx="292.4657" cy="638.5142" fill="#EFF6FF" rx="84.9657" ry="19.3931" style="stroke:#1D4ED8;stroke-width:0.5;"/><text fill="#0F172A" font-family="'Segoe UI'" font-size="13" lengthAdjust="spacing" textLength="139.2803" x="222.8255" y="643.6597">Uruchomienie rozgrywki</text></g><!--entity UC9--><g class="entity" data-qualified-name="Digital Dungeons.UC9" data-source-line="21" id="ent0016"><ellipse cx="292.5103" cy="296.4231" fill="#EFF6FF" rx="82.0103" ry="18.8021" style="stroke:#1D4ED8;stroke-width:0.5;"/><text fill="#0F172A" font-family="'Segoe UI'" font-size="13" lengthAdjust="spacing" textLength="132.2725" x="226.374" y="301.5687">Zapis/Odczyt stanu gry</text></g><!--entity UC10--><g class="entity" data-qualified-name="Digital Dungeons.UC10" data-source-line="22" id="ent0017"><ellipse cx="292.2978" cy="434.6807" fill="#EFF6FF" rx="83.2978" ry="19.0596" style="stroke:#1D4ED8;stroke-width:0.5;"/><text fill="#0F172A" font-family="'Segoe UI'" font-size="13" lengthAdjust="spacing" textLength="135.3384" x="224.6286" y="439.8262">Dodawanie komentarza</text></g><!--entity UC11--><g class="entity" data-qualified-name="Digital Dungeons.UC11" data-source-line="23" id="ent0018"><ellipse cx="292.711" cy="503.8477" fill="#EFF6FF" rx="61.211" ry="15.2266" style="stroke:#1D4ED8;stroke-width:0.5;"/><text fill="#0F172A" font-family="'Segoe UI'" font-size="13" lengthAdjust="spacing" textLength="82.3228" x="251.5496" y="508.9932">Polubienie gry</text></g><!--entity UC12--><g class="entity" data-qualified-name="Digital Dungeons.UC12" data-source-line="24" id="ent0019"><ellipse cx="292.6965" cy="568.8477" fill="#EFF6FF" rx="57.6965" ry="15.2266" style="stroke:#1D4ED8;stroke-width:0.5;"/><text fill="#0F172A" font-family="'Segoe UI'" font-size="13" lengthAdjust="spacing" textLength="77.3525" x="254.0202" y="573.9932">Edycja profilu</text></g><!--entity Guest--><g class="entity" data-qualified-name="Guest" data-source-line="5" id="ent0002"><ellipse cx="75.0283" cy="713.6211" fill="#E2E8F0" rx="8" ry="8" style="stroke:#334155;stroke-width:0.5;"/><path d="M75.0283,721.6211 L75.0283,748.6211 M62.0283,729.6211 L88.0283,729.6211 M75.0283,748.6211 L62.0283,763.6211 M75.0283,748.6211 L88.0283,763.6211" fill="none" style="stroke:#334155;stroke-width:0.5;"/><text fill="#111827" font-family="'Segoe UI'" font-size="13" lengthAdjust="spacing" textLength="28.0566" x="61" y="779.1494">Gosc</text></g><!--entity User--><g class="entity" data-qualified-name="User" data-source-line="6" id="ent0003"><ellipse cx="74.8276" cy="473.6211" fill="#E2E8F0" rx="8" ry="8" style="stroke:#334155;stroke-width:0.5;"/><path d="M74.8276,481.6211 L74.8276,508.6211 M61.8276,489.6211 L87.8276,489.6211 M74.8276,508.6211 L61.8276,523.6211 M74.8276,508.6211 L87.8276,523.6211" fill="none" style="stroke:#334155;stroke-width:0.5;"/><text fill="#111827" font-family="'Segoe UI'" font-size="13" lengthAdjust="spacing" textLength="137.6553" x="6" y="539.1494">Zalogowany uzytkownik</text></g><!--entity Creator--><g class="entity" data-qualified-name="Creator" data-source-line="7" id="ent0004"><ellipse cx="74.9939" cy="165.6211" fill="#E2E8F0" rx="8" ry="8" style="stroke:#334155;stroke-width:0.5;"/><path d="M74.9939,173.6211 L74.9939,200.6211 M61.9939,181.6211 L87.9939,181.6211 M74.9939,200.6211 L61.9939,215.6211 M74.9939,200.6211 L87.9939,215.6211" fill="none" style="stroke:#334155;stroke-width:0.5;"/><text fill="#111827" font-family="'Segoe UI'" font-size="13" lengthAdjust="spacing" textLength="62.9878" x="43.5" y="231.1494">Tworca gry</text></g><!--link User to Guest--><g class="link" data-entity-1="ent0003" data-entity-2="ent0002" data-link-type="extension" data-source-line="9" id="lnk5"><path d="M75,542.1811 C75,586.8311 75,641.9811 75,686.7611" fill="none" id="User-to-Guest" style="stroke:#1F2937;stroke-width:1;"/><polygon fill="none" points="75,704.7611,81,686.7611,69,686.7611,75,704.7611" style="stroke:#1F2937;stroke-width:1;"/></g><!--link Creator to User--><g class="link" data-entity-1="ent0004" data-entity-2="ent0003" data-link-type="extension" data-source-line="10" id="lnk6"><path d="M75,234.3211 C75,293.4511 75,387.6611 75,446.8411" fill="none" id="Creator-to-User" style="stroke:#1F2937;stroke-width:1;"/><polygon fill="none" points="75,464.8411,81,446.8411,69,446.8411,75,464.8411" style="stroke:#1F2937;stroke-width:1;"/></g><!--link Guest to UC1--><g class="link" data-entity-1="ent0002" data-entity-2="ent0008" data-link-type="dependency" data-source-line="27" id="lnk20"><path d="M75,782.1211 C75,812.0911 75,848.6211 75,848.6211 C75,848.6211 175.93,848.6211 239.84,848.6211" fill="none" id="Guest-to-UC1" style="stroke:#1F2937;stroke-width:1;"/><polygon fill="#1F2937" points="245.84,848.6211,236.84,844.6211,240.84,848.6211,236.84,852.6211,245.84,848.6211" style="stroke:#1F2937;stroke-width:1;"/></g><!--link Guest to UC2--><g class="link" data-entity-1="ent0002" data-entity-2="ent0009" data-link-type="dependency" data-source-line="28" id="lnk21"><path d="M89.27,714.3711 C121.12,714.3711 193.09,714.3711 242.67,714.3711" fill="none" id="Guest-to-UC2" style="stroke:#1F2937;stroke-width:1;"/><polygon fill="#1F2937" points="248.67,714.3711,239.67,710.3711,243.67,714.3711,239.67,718.3711,248.67,714.3711" style="stroke:#1F2937;stroke-width:1;"/></g><!--link Guest to UC3--><g class="link" data-entity-1="ent0002" data-entity-2="ent0010" data-link-type="dependency" data-source-line="29" id="lnk22"><path d="M89.27,770.3711 C113.94,770.3711 160.27,770.3711 205.65,770.3711" fill="none" id="Guest-to-UC3" style="stroke:#1F2937;stroke-width:1;"/><polygon fill="#1F2937" points="211.65,770.3711,202.65,766.3711,206.65,770.3711,202.65,774.3711,211.65,770.3711" style="stroke:#1F2937;stroke-width:1;"/></g><!--link User to UC4--><g class="link" data-entity-1="ent0003" data-entity-2="ent0011" data-link-type="dependency" data-source-line="31" id="lnk23"><path d="M126,464.8111 C126,424.0011 126,365.6211 126,365.6211 C126,365.6211 178.7,365.6211 226.39,365.6211" fill="none" id="User-to-UC4" style="stroke:#1F2937;stroke-width:1;"/><polygon fill="#1F2937" points="232.39,365.6211,223.39,361.6211,227.39,365.6211,223.39,369.6211,232.39,365.6211" style="stroke:#1F2937;stroke-width:1;"/></g><!--link User to UC8--><g class="link" data-entity-1="ent0003" data-entity-2="ent0015" data-link-type="dependency" data-source-line="32" id="lnk24"><path d="M144.34,530.3711 C180.38,530.3711 217,530.3711 217,530.3711 C217,530.3711 217,597.2111 217,623.3911" fill="none" id="User-to-UC8" style="stroke:#1F2937;stroke-width:1;"/><polygon fill="#1F2937" points="217,629.3911,221,620.3911,217,624.3911,213,620.3911,217,629.3911" style="stroke:#1F2937;stroke-width:1;"/></g><!--link User to UC10--><g class="link" data-entity-1="ent0003" data-entity-2="ent0017" data-link-type="dependency" data-source-line="33" id="lnk25"><path d="M144.27,476.8711 C183.18,476.8711 224,476.8711 224,476.8711 C224,476.8711 224,464.2411 224,451.7211" fill="none" id="User-to-UC10" style="stroke:#1F2937;stroke-width:1;"/><polygon fill="#1F2937" points="224,445.7211,220,454.7211,224,450.7211,228,454.7211,224,445.7211" style="stroke:#1F2937;stroke-width:1;"/></g><!--link User to UC11--><g class="link" data-entity-1="ent0003" data-entity-2="ent0018" data-link-type="dependency" data-source-line="34" id="lnk26"><path d="M144.12,503.6211 C172.1,503.6211 198.15,503.6211 225.28,503.6211" fill="none" id="User-to-UC11" style="stroke:#1F2937;stroke-width:1;"/><polygon fill="#1F2937" points="231.28,503.6211,222.28,499.6211,226.28,503.6211,222.28,507.6211,231.28,503.6211" style="stroke:#1F2937;stroke-width:1;"/></g><!--link User to UC12--><g class="link" data-entity-1="ent0003" data-entity-2="ent0019" data-link-type="dependency" data-source-line="35" id="lnk27"><path d="M117,542.1811 C117,556.1811 117,568.6211 117,568.6211 C117,568.6211 177.43,568.6211 228.55,568.6211" fill="none" id="User-to-UC12" style="stroke:#1F2937;stroke-width:1;"/><polygon fill="#1F2937" points="234.55,568.6211,225.55,564.6211,229.55,568.6211,225.55,572.6211,234.55,568.6211" style="stroke:#1F2937;stroke-width:1;"/></g><!--link Creator to UC5--><g class="link" data-entity-1="ent0004" data-entity-2="ent0012" data-link-type="dependency" data-source-line="37" id="lnk28"><path d="M75,156.8911 C75,129.5011 75,97.6211 75,97.6211 C75,97.6211 178.93,97.6211 242.49,97.6211" fill="none" id="Creator-to-UC5" style="stroke:#1F2937;stroke-width:1;"/><polygon fill="#1F2937" points="248.49,97.6211,239.49,93.6211,243.49,97.6211,239.49,101.6211,248.49,97.6211" style="stroke:#1F2937;stroke-width:1;"/></g><!--link Creator to UC6--><g class="link" data-entity-1="ent0004" data-entity-2="ent0013" data-link-type="dependency" data-source-line="38" id="lnk29"><path d="M106.63,167.3711 C140.91,167.3711 190.27,167.3711 231.67,167.3711" fill="none" id="Creator-to-UC6" style="stroke:#1F2937;stroke-width:1;"/><polygon fill="#1F2937" points="237.67,167.3711,228.67,163.3711,232.67,167.3711,228.67,171.3711,237.67,167.3711" style="stroke:#1F2937;stroke-width:1;"/></g><!--link Creator to UC7--><g class="link" data-entity-1="ent0004" data-entity-2="ent0014" data-link-type="dependency" data-source-line="39" id="lnk30"><path d="M106.63,223.3711 C140.32,223.3711 188.37,223.3711 229.52,223.3711" fill="none" id="Creator-to-UC7" style="stroke:#1F2937;stroke-width:1;"/><polygon fill="#1F2937" points="235.52,223.3711,226.52,219.3711,230.52,223.3711,226.52,227.3711,235.52,223.3711" style="stroke:#1F2937;stroke-width:1;"/></g><!--link UC8 to UC9--><g class="link" data-entity-1="ent0015" data-entity-2="ent0016" data-link-type="dependency" data-source-line="41" id="lnk31"><path d="M377.7,638.6211 C390.22,638.6211 399,638.6211 399,638.6211 C399,638.6211 399,296.6211 399,296.6211 C399,296.6211 394.73,296.6211 380.57,296.6211" fill="none" id="UC8-to-UC9" style="stroke:#1F2937;stroke-width:1;stroke-dasharray:7,7;"/><polygon fill="#1F2937" points="374.57,296.6211,383.57,300.6211,379.57,296.6211,383.57,292.6211,374.57,296.6211" style="stroke:#1F2937;stroke-width:1;"/><text fill="#000000" font-family="'Segoe UI'" font-size="13" lengthAdjust="spacing" textLength="54.6216" x="344" y="481.0794">&#171;include&#187;</text></g><?plantuml-src RLFBJiCm4BpxAvRUMsY1Kb3LIuku884GlVIsE2PiuzYH7weIuDznt0ISYbjcPtOyQs_EI77fCm7MrL9Co9UIEN9Im8PoSYXXurKkjB8m3YNC3PPGcQQkC2lq0NnJSq8cnRi3fy5G_k4W8oEu8wqOG-wqWT63jdm4QE712-lwwWwbplK1LTtwkE2dg8YohHMcLxqUjE48kQaZjJO2GvsnLWFZhrNdsTLZ9RQpDWIgFCmoEXrc19yCm5l1qGRwHUo3XK6-n-FnwsbAFnvJakZ8MKe-cqRa4hEMXn9D8LmbaVVQorJRZjA8LjXFirrVfOBxh0uP4lOwPRVMXru-Q9yFilWtIGKEBMu65iRp3rrI365q4sI7WZhb8bNki29x_fJny39XEr3vnFCsLMvqXl5weD2bK0vDytkD5uDuMletEfb_Eltd0YgZtqdwNZ9Ztup5PuRnU1MV9qMp0RhiLoEYgnGiKX2ofMWwG3Fsjr2nSds2voVu9fowNi2a_Rw5ErWkkpzhjVe1?></g></svg>