<?plantuml 1.2026.2?><svg xmlns="http://www.w3.org/2000/svg" xmlns:xlink="http://www.w3.org/1999/xlink" contentStyleType="text/css" data-diagram-type="DESCRIPTION" height="690px" preserveAspectRatio="none" style="width:549px;height:690px;background:#FFFFFF;" version="1.1" viewBox="0 0 549 690" width="549px" zoomAndPan="magnify"><defs/><g><!--cluster Digital Dungeons--><g class="cluster" data-qualified-name="Digital Dungeons" data-source-line="21" id="ent0007"><rect fill="#F8FAFC" height="677.5" rx="5" ry="5" style="stroke:#334155;stroke-width:1;" width="146" x="7" y="7"/><text fill="#111827" font-family="'Book Antiqua'" font-size="13" font-weight="bold" lengthAdjust="spacing" textLength="106.8882" x="26.5559" y="22.4951">Digital Dungeons</text></g><!--entity UC1--><g class="entity" data-qualified-name="Digital Dungeons.UC1" data-source-line="22" id="ent0008"><ellipse cx="86.943" cy="55.6729" fill="#EFF6FF" rx="45.443" ry="13.6729" style="stroke:#1D4ED8;stroke-width:0.5;"/><text fill="#0F172A" font-family="'Book Antiqua'" font-size="12" lengthAdjust="spacing" textLength="60.0234" x="56.9313" y="59.7198">Rejestracja</text></g><!--entity UC2--><g class="entity" data-qualified-name="Digital Dungeons.UC2" data-source-line="23" id="ent0009"><ellipse cx="83.0467" cy="125.1729" fill="#EFF6FF" rx="44.0467" ry="13.6729" style="stroke:#1D4ED8;stroke-width:0.5;"/><text fill="#0F172A" font-family="'Book Antiqua'" font-size="12" lengthAdjust="spacing" textLength="58.0488" x="54.0223" y="129.2198">Logowanie</text></g><!--entity UC3--><g class="entity" data-qualified-name="Digital Dungeons.UC3" data-source-line="24" id="ent0010"><ellipse cx="75.2377" cy="180.5035" fill="#EFF6FF" rx="51.7377" ry="24.0035" style="stroke:#1D4ED8;stroke-width:0.5;"/><text fill="#0F172A" font-family="'Book Antiqua'" font-size="12" lengthAdjust="spacing" textLength="70.0488" x="40.2133" y="177.4916">Przegl&#261;danie</text><text fill="#0F172A" font-family="'Book Antiqua'" font-size="12" lengthAdjust="spacing" textLength="65.3613" x="42.557" y="192.5853">marketplace</text></g><!--entity UC4--><g class="entity" data-qualified-name="Digital Dungeons.UC4" data-source-line="25" id="ent0011"><ellipse cx="79.7857" cy="236.1729" fill="#EFF6FF" rx="56.2857" ry="13.6729" style="stroke:#1D4ED8;stroke-width:0.5;"/><text fill="#0F172A" font-family="'Book Antiqua'" font-size="12" lengthAdjust="spacing" textLength="75.3574" x="42.107" y="240.2198">Tworzenie gry</text></g><!--entity UC5--><g class="entity" data-qualified-name="Digital Dungeons.UC5" data-source-line="26" id="ent0012"><ellipse cx="82.1132" cy="281.1729" fill="#EFF6FF" rx="42.6132" ry="13.6729" style="stroke:#1D4ED8;stroke-width:0.5;"/><text fill="#0F172A" font-family="'Book Antiqua'" font-size="12" lengthAdjust="spacing" textLength="56.0215" x="54.1024" y="285.2198">Edycja gry</text></g><!--entity UC6--><g class="entity" data-qualified-name="Digital Dungeons.UC6" data-source-line="27" id="ent0013"><ellipse cx="81.9047" cy="326.1729" fill="#EFF6FF" rx="54.4047" ry="13.6729" style="stroke:#1D4ED8;stroke-width:0.5;"/><text fill="#0F172A" font-family="'Book Antiqua'" font-size="12" lengthAdjust="spacing" textLength="72.6973" x="45.5561" y="330.2198">Usuni&#281;cie gry</text></g><!--entity UC7--><g class="entity" data-qualified-name="Digital Dungeons.UC7" data-source-line="28" id="ent0014"><ellipse cx="80.8217" cy="371.1729" fill="#EFF6FF" rx="55.8217" ry="13.6729" style="stroke:#1D4ED8;stroke-width:0.5;"/><text fill="#0F172A" font-family="'Book Antiqua'" font-size="12" lengthAdjust="spacing" textLength="74.7012" x="43.4711" y="375.2198">Publikacja gry</text></g><!--entity UC8--><g class="entity" data-qualified-name="Digital Dungeons.UC8" data-source-line="29" id="ent0015"><ellipse cx="82.9948" cy="425.4779" fill="#EFF6FF" rx="51.9948" ry="22.9779" style="stroke:#1D4ED8;stroke-width:0.5;"/><text fill="#0F172A" font-family="'Book Antiqua'" font-size="12" lengthAdjust="spacing" textLength="74.0332" x="45.9782" y="423.9836">Uruchomienie</text><text fill="#0F172A" font-family="'Book Antiqua'" font-size="12" lengthAdjust="spacing" textLength="50.6719" x="57.6589" y="439.0774">rozgrywki</text></g><!--entity UC9--><g class="entity" data-qualified-name="Digital Dungeons.UC9" data-source-line="30" id="ent0016"><ellipse cx="83.0022" cy="489.5485" fill="#EFF6FF" rx="49.5022" ry="23.0485" style="stroke:#1D4ED8;stroke-width:0.5;"/><text fill="#0F172A" font-family="'Book Antiqua'" font-size="12" lengthAdjust="spacing" textLength="70.0195" x="47.9924" y="487.9468">Zapis/Odczyt</text><text fill="#0F172A" font-family="'Book Antiqua'" font-size="12" lengthAdjust="spacing" textLength="49.3594" x="58.3225" y="503.0405">stanu gry</text></g><!--entity UC10--><g class="entity" data-qualified-name="Digital Dungeons.UC10" data-source-line="31" id="ent0017"><ellipse cx="82.8754" cy="554.6258" fill="#EFF6FF" rx="46.8754" ry="24.1258" style="stroke:#1D4ED8;stroke-width:0.5;"/><text fill="#0F172A" font-family="'Book Antiqua'" font-size="12" lengthAdjust="spacing" textLength="60.041" x="52.8549" y="550.8131">Dodawanie</text><text fill="#0F172A" font-family="'Book Antiqua'" font-size="12" lengthAdjust="spacing" textLength="62.6953" x="51.5277" y="565.9068">komentarza</text></g><!--entity UC11--><g class="entity" data-qualified-name="Digital Dungeons.UC11" data-source-line="32" id="ent0018"><ellipse cx="80.0699" cy="610.214" fill="#EFF6FF" rx="56.5699" ry="13.714" style="stroke:#1D4ED8;stroke-width:0.5;"/><text fill="#0F172A" font-family="'Book Antiqua'" font-size="12" lengthAdjust="spacing" textLength="76.0488" x="42.0455" y="614.2609">Polubienie gry</text></g><!--entity UC12--><g class="entity" data-qualified-name="Digital Dungeons.UC12" data-source-line="33" id="ent0019"><ellipse cx="80.9365" cy="655.1729" fill="#EFF6FF" rx="53.9365" ry="13.6729" style="stroke:#1D4ED8;stroke-width:0.5;"/><text fill="#0F172A" font-family="'Book Antiqua'" font-size="12" lengthAdjust="spacing" textLength="72.0352" x="44.919" y="659.2198">Edycja profilu</text></g><!--entity Guest--><g class="entity" data-qualified-name="Guest" data-source-line="14" id="ent0002"><ellipse cx="527.1709" cy="26" fill="#E2E8F0" rx="8" ry="8" style="stroke:#334155;stroke-width:0.5;"/><path d="M527.1709,34 L527.1709,61 M514.1709,42 L540.1709,42 M527.1709,61 L514.1709,76 M527.1709,61 L540.1709,76" fill="none" style="stroke:#334155;stroke-width:0.5;"/><text fill="#111827" font-family="'Book Antiqua'" font-size="13" lengthAdjust="spacing" textLength="30.3418" x="512" y="90.9951">Go&#347;&#263;</text></g><!--entity User--><g class="entity" data-qualified-name="User" data-source-line="15" id="ent0003"><ellipse cx="415.1436" cy="26" fill="#E2E8F0" rx="8" ry="8" style="stroke:#334155;stroke-width:0.5;"/><path d="M415.1436,34 L415.1436,61 M402.1436,42 L428.1436,42 M415.1436,61 L402.1436,76 M415.1436,61 L428.1436,76" fill="none" style="stroke:#334155;stroke-width:0.5;"/><text fill="#111827" font-family="'Book Antiqua'" font-size="13" lengthAdjust="spacing" textLength="137.2871" x="346.5" y="90.9951">Zalogowany u&#380;ytkownik</text></g><!--entity Creator--><g class="entity" data-qualified-name="Creator" data-source-line="16" id="ent0004"><ellipse cx="286.1445" cy="26" fill="#E2E8F0" rx="8" ry="8" style="stroke:#334155;stroke-width:0.5;"/><path d="M286.1445,34 L286.1445,61 M273.1445,42 L299.1445,42 M286.1445,61 L273.1445,76 M286.1445,61 L299.1445,76" fill="none" style="stroke:#334155;stroke-width:0.5;"/><text fill="#111827" font-family="'Book Antiqua'" font-size="13" lengthAdjust="spacing" textLength="64.2891" x="254" y="90.9951">Tw&#243;rca gry</text></g><!--link User to Guest--><g class="link" data-entity-1="ent0003" data-entity-2="ent0002" data-link-type="extension" data-source-line="18" id="lnk5"><path d="M483.7,55.5 C494.2,55.5 486.08,55.5 493.74,55.5" fill="none" id="User-to-Guest" style="stroke:#1F2937;stroke-width:1;"/><polygon fill="none" points="511.74,55.5,493.74,49.5,493.74,61.5,511.74,55.5" style="stroke:#1F2937;stroke-width:1;"/></g><!--link Creator to User--><g class="link" data-entity-1="ent0004" data-entity-2="ent0003" data-link-type="extension" data-source-line="19" id="lnk6"><path d="M318.22,55.5 C326.88,55.5 318.58,55.5 328.41,55.5" fill="none" id="Creator-to-User" style="stroke:#1F2937;stroke-width:1;"/><polygon fill="none" points="346.41,55.5,328.41,49.5,328.41,61.5,346.41,55.5" style="stroke:#1F2937;stroke-width:1;"/></g><!--link Guest to UC1--><g class="link" data-entity-1="ent0002" data-entity-2="ent0008" data-link-type="dependency" data-source-line="36" id="lnk20"><path d="M519.5,93.88 C519.5,98.99 519.5,102.5 519.5,102.5 C519.5,102.5 98.5,102.5 98.5,102.5 C98.5,102.5 98.5,88.5 98.5,74.59" fill="none" id="Guest-to-UC1" style="stroke:#1F2937;stroke-width:1;"/><polygon fill="#1F2937" points="98.5,68.59,94.5,77.59,98.5,73.59,102.5,77.59,98.5,68.59" style="stroke:#1F2937;stroke-width:1;"/></g><!--link Guest to UC2--><g class="link" data-entity-1="ent0002" data-entity-2="ent0009" data-link-type="dependency" data-source-line="37" id="lnk21"><path d="M527,93.78 C527,110.12 527,125.5 527,125.5 C527,125.5 245.5,125.5 133.2,125.5" fill="none" id="Guest-to-UC2" style="stroke:#1F2937;stroke-width:1;"/><polygon fill="#1F2937" points="127.2,125.5,136.2,129.5,132.2,125.5,136.2,121.5,127.2,125.5" style="stroke:#1F2937;stroke-width:1;"/></g><!--link Guest to UC3--><g class="link" data-entity-1="ent0002" data-entity-2="ent0010" data-link-type="dependency" data-source-line="38" id="lnk22"><path d="M534.5,93.68 C534.5,130.44 534.5,180.5 534.5,180.5 C534.5,180.5 252.99,180.5 132.82,180.5" fill="none" id="Guest-to-UC3" style="stroke:#1F2937;stroke-width:1;"/><polygon fill="#1F2937" points="126.82,180.5,135.82,184.5,131.82,180.5,135.82,176.5,126.82,180.5" style="stroke:#1F2937;stroke-width:1;"/></g><!--link User to UC4--><g class="link" data-entity-1="ent0003" data-entity-2="ent0011" data-link-type="dependency" data-source-line="40" id="lnk23"><path d="M369.33,93.89 C369.33,147.02 369.33,236.5 369.33,236.5 C369.33,236.5 226.67,236.5 142.47,236.5" fill="none" id="User-to-UC4" style="stroke:#1F2937;stroke-width:1;"/><polygon fill="#1F2937" points="136.47,236.5,145.47,240.5,141.47,236.5,145.47,232.5,136.47,236.5" style="stroke:#1F2937;stroke-width:1;"/></g><!--link User to UC8--><g class="link" data-entity-1="ent0003" data-entity-2="ent0015" data-link-type="dependency" data-source-line="41" id="lnk24"><path d="M392.17,93.7 C392.17,188.24 392.17,425.5 392.17,425.5 C392.17,425.5 229.21,425.5 141.1,425.5" fill="none" id="User-to-UC8" style="stroke:#1F2937;stroke-width:1;"/><polygon fill="#1F2937" points="135.1,425.5,144.1,429.5,140.1,425.5,144.1,421.5,135.1,425.5" style="stroke:#1F2937;stroke-width:1;"/></g><!--link User to UC10--><g class="link" data-entity-1="ent0003" data-entity-2="ent0017" data-link-type="dependency" data-source-line="42" id="lnk25"><path d="M415,93.83 C415,210.67 415,554.5 415,554.5 C415,554.5 227.87,554.5 136.21,554.5" fill="none" id="User-to-UC10" style="stroke:#1F2937;stroke-width:1;"/><polygon fill="#1F2937" points="130.21,554.5,139.21,558.5,135.21,554.5,139.21,550.5,130.21,554.5" style="stroke:#1F2937;stroke-width:1;"/></g><!--link User to UC11--><g class="link" data-entity-1="ent0003" data-entity-2="ent0018" data-link-type="dependency" data-source-line="43" id="lnk26"><path d="M437.83,93.65 C437.83,219.04 437.83,610.5 437.83,610.5 C437.83,610.5 243.6,610.5 142.7,610.5" fill="none" id="User-to-UC11" style="stroke:#1F2937;stroke-width:1;"/><polygon fill="#1F2937" points="136.7,610.5,145.7,614.5,141.7,610.5,145.7,606.5,136.7,610.5" style="stroke:#1F2937;stroke-width:1;"/></g><!--link User to UC12--><g class="link" data-entity-1="ent0003" data-entity-2="ent0019" data-link-type="dependency" data-source-line="44" id="lnk27"><path d="M460.67,93.95 C460.67,226.37 460.67,655.5 460.67,655.5 C460.67,655.5 245.81,655.5 140.99,655.5" fill="none" id="User-to-UC12" style="stroke:#1F2937;stroke-width:1;"/><polygon fill="#1F2937" points="134.99,655.5,143.99,659.5,139.99,655.5,143.99,651.5,134.99,655.5" style="stroke:#1F2937;stroke-width:1;"/></g><!--link Creator to UC5--><g class="link" data-entity-1="ent0004" data-entity-2="ent0012" data-link-type="dependency" data-source-line="46" id="lnk28"><path d="M270,93.58 C270,157.99 270,281.5 270,281.5 C270,281.5 186.13,281.5 130.66,281.5" fill="none" id="Creator-to-UC5" style="stroke:#1F2937;stroke-width:1;"/><polygon fill="#1F2937" points="124.66,281.5,133.66,285.5,129.66,281.5,133.66,277.5,124.66,281.5" style="stroke:#1F2937;stroke-width:1;"/></g><!--link Creator to UC6--><g class="link" data-entity-1="ent0004" data-entity-2="ent0013" data-link-type="dependency" data-source-line="47" id="lnk29"><path d="M286,93.75 C286,168.45 286,326.5 286,326.5 C286,326.5 203.1,326.5 142.67,326.5" fill="none" id="Creator-to-UC6" style="stroke:#1F2937;stroke-width:1;"/><polygon fill="#1F2937" points="136.67,326.5,145.67,330.5,141.67,326.5,145.67,322.5,136.67,326.5" style="stroke:#1F2937;stroke-width:1;"/></g><!--link Creator to UC7--><g class="link" data-entity-1="ent0004" data-entity-2="ent0014" data-link-type="dependency" data-source-line="48" id="lnk30"><path d="M302,93.62 C302,177.66 302,371.5 302,371.5 C302,371.5 208.53,371.5 143.05,371.5" fill="none" id="Creator-to-UC7" style="stroke:#1F2937;stroke-width:1;"/><polygon fill="#1F2937" points="137.05,371.5,146.05,375.5,142.05,371.5,146.05,367.5,137.05,371.5" style="stroke:#1F2937;stroke-width:1;"/></g><!--link UC8 to UC9--><g class="link" data-entity-1="ent0015" data-entity-2="ent0016" data-link-type="dependency" data-source-line="50" id="lnk31"><path d="M99.5,447.53 C99.5,454.03 99.5,455.15 99.5,461.65" fill="none" id="UC8-to-UC9" style="stroke:#1F2937;stroke-width:1;stroke-dasharray:7,7;"/><polygon fill="#1F2937" points="99.5,467.65,103.5,458.65,99.5,462.65,95.5,458.65,99.5,467.65" style="stroke:#1F2937;stroke-width:1;"/><text fill="#000000" font-family="'Book Antiqua'" font-size="13" lengthAdjust="spacing" textLength="55.6563" x="100.5" y="454.0851">&#171;include&#187;</text></g><!--link UC8 to UC9--><!--link UC1 to UC2--><!--link UC2 to UC3--><!--link UC3 to UC4--><!--link UC4 to UC5--><!--link UC5 to UC6--><!--link UC6 to UC7--><!--link UC7 to UC8--><!--link UC9 to UC10--><!--link UC10 to UC11--><!--link UC11 to UC12--><?plantuml-src RPJFSjCm4CRlUeeb76WFQMldRpkTp43Ib4DdOA2zb79GRDLHhMWpibJN0OuCpy3m65ovqRuNQzSfik5WZ_UtdzUxdoKzapfIBXQGsKA9FUbMYhs0CrwWis2T5Z5Sem7DZS5yttAbO8UlrmRlzY0u2Y6NiLqUBOLCbdQNMLo3HLYWjRY2M1eHMOcQPQdKQsxu2ZJ68XDh2CSUD5od9Gnyw38HyKpCKTltSYCW2FzDmYS6y8f7QMBGwNYAYdfzVZAV3-VpCeCc5gQcmQn_CXiJBIlMx60UZCANx0jRIhBW6j4ky8un7bdATaxnuSVzjmxm34wToEoMNtA52UPS5-0UVXKsnLpBjD9TPC9iPUVvxvycuf2OeifDZU2KOAmKGVVpfAvQyufKxxFIDguJ9Q0pauaars7cT29GPvrgvEtudNVYXaeO7jtmn-zF0pzzzjYd57Koz9DlpKOawlvhN0gkz8gRLDYruj5MtVFLvpcIdfHFyrnC-xxW92we2oyxyBCNcTFo_dlKU7_OQCSjb4nviyQeKSEuQ8ahAQf-3Mv8bwUobevzwILVosp_JHnj2dkbCtBJULKFVUaCOvu_Mf3YIcZBpUR9p8D6XwZSGhOy28B_c43xuregjvM4jC9OzREXsvrKFycFmaRKsowGAkhxmTWFg3S_2XfHoFukgueCMl6m5O_egzCnx9NFXt04nyVrmJ2PC3eGNiiu5XgKf8rQxd0w4o81jy9O6T7g98CZsfi9xFW7XQfEaLqg743tmx8gyR6UcAuMwn7hjHXDF-sts83OeCM6n8OjDY8sQh5nDMIJ7R9ouYOhlQLRcmObRSyIX7y0?></g></svg>